<svg width="227" height="151" viewBox="0 0 227 151" fill="none" xmlns="http://www.w3.org/2000/svg">
<path d="M27.7759 17.8506H189.916" stroke="#BFEAFF" stroke-width="1.9411" stroke-miterlimit="10"/>
<path d="M180.009 137.649H37.6332C32.146 137.649 27.7271 133.23 27.7271 127.743V11.3944C27.7271 5.90719 32.146 1.48828 37.6332 1.48828H180.009C185.497 1.48828 189.915 5.90719 189.915 11.3944V127.743C189.915 133.181 185.497 137.649 180.009 137.649Z" stroke="#BFEAFF" stroke-width="1.9411" stroke-miterlimit="10"/>
<path d="M43.7516 9.83991C43.7516 11.1025 42.7319 12.1222 41.4693 12.1222C40.2068 12.1222 39.187 11.1025 39.187 9.83991C39.187 8.57736 40.2068 7.55762 41.4693 7.55762C42.7319 7.55762 43.7516 8.57736 43.7516 9.83991Z" stroke="#BFEAFF" stroke-width="1.9411" stroke-miterlimit="10"/>
<path d="M52.6383 9.83991C52.6383 11.1025 51.6186 12.1222 50.356 12.1222C49.0935 12.1222 48.0737 11.1025 48.0737 9.83991C48.0737 8.57736 49.0935 7.55762 50.356 7.55762C51.6186 7.55762 52.6383 8.57736 52.6383 9.83991Z" stroke="#BFEAFF" stroke-width="1.9411" stroke-miterlimit="10"/>
<path d="M61.525 9.83991C61.525 11.1025 60.5053 12.1222 59.2427 12.1222C57.9802 12.1222 56.9604 11.1025 56.9604 9.83991C56.9604 8.57736 57.9802 7.55762 59.2427 7.55762C60.5053 7.55762 61.525 8.57736 61.525 9.83991Z" stroke="#BFEAFF" stroke-width="1.9411" stroke-miterlimit="10"/>
<path d="M104.548 147.509C128.439 144.935 204.435 151.248 198.219 139.497C197.248 137.749 192.246 135.418 196.374 133.621C199.336 132.261 204.872 131.387 210.213 130.707C224.15 128.959 229.297 126.289 225.655 122.889C215.992 113.663 164.616 117.596 137.666 121.287C118.485 124.006 95.856 125.123 75.9467 123.958C60.3591 123.035 50.5501 120.316 32.2918 121.773C27.7758 122.112 24.328 122.647 21.8029 123.326C15.296 125.026 15.0532 127.551 18.5009 129.833C21.2202 131.776 23.2112 132.601 17.8696 134.738C13.4022 136.874 5.53554 138.574 5.00139 140.905C4.90427 143.381 9.90589 145.761 19.4721 146.392C27.2902 146.926 34.3313 146.392 42.1008 146.586C59.2908 147.169 70.4595 152.996 91.7285 150.18C97.0215 149.451 99.9836 147.995 105.762 147.412" fill="#F3F4F5"/>
<path opacity="0.5" d="M190.645 130.609C199.337 130.609 206.379 129.832 206.379 128.813C206.379 127.841 199.337 127.064 190.645 127.064C181.953 127.064 174.912 127.841 174.912 128.813C174.912 129.832 181.953 130.609 190.645 130.609Z" fill="#A3A8AF"/>
<path d="M43.0703 98.797C42.5847 95.9805 41.1765 93.4554 40.2053 90.7847C38.9427 87.3369 39.574 84.5691 40.4481 81.1699C41.8077 76.0226 41.8563 70.2926 39.1855 65.5823C38.4571 64.3198 37.4859 63.2029 36.7575 61.8918C35.932 60.4836 35.5921 58.6383 35.3979 57.0359C35.2522 55.5305 35.5436 53.9766 35.4464 52.4227C35.3979 51.1116 35.2036 49.8005 34.8152 48.4894C33.844 44.896 31.2703 40.2829 26.9971 40.3314C21.9469 40.38 20.6358 46.4985 20.7815 50.4804C20.8786 53.2482 21.3642 56.2104 20.393 58.8326C19.3247 61.6976 16.5083 63.4457 14.9058 66.0194C12.5264 69.7584 12.0408 74.6629 13.6918 78.7905C14.6145 81.1213 16.654 83.2094 16.7511 85.8316C16.8482 88.8423 13.5462 90.639 11.9923 92.8727C9.46716 96.6604 9.32149 101.613 11.0696 105.692C15.4885 114.919 27.6284 118.124 36.2234 112.976C36.3691 112.976 36.5148 112.976 36.6119 112.879C41.0308 109.577 44.0415 104.381 43.0703 98.797Z" fill="url(#paint0_linear)"/>
<path d="M27.3379 121.963C27.435 117.495 27.4836 113.076 27.5321 108.609C24.8128 105.598 22.5305 102.296 20.7824 98.6543C20.5396 98.1687 21.3165 97.8773 21.5593 98.3629C23.1618 101.616 25.2013 104.627 27.5807 107.395C27.6293 103.607 27.6778 99.8682 27.7264 96.0806C27.6778 96.0806 27.6778 96.032 27.6293 95.9835C24.8128 92.8757 22.482 89.4765 20.5396 85.786C20.2968 85.3004 21.0737 85.0091 21.3165 85.4946C23.1132 88.8452 25.2498 92.0016 27.7749 94.8666C27.8235 91.3218 27.8721 87.7769 27.8721 84.2807C26.0268 81.9984 24.3758 79.5704 22.919 77.0453C22.6762 76.6083 23.3075 76.0741 23.5503 76.5597C24.8128 78.7935 26.2696 80.9786 27.8235 83.0181C27.8721 79.4733 27.8721 75.977 27.9206 72.4322C27.8721 72.3836 27.8235 72.3836 27.7749 72.3351C26.5609 70.8783 25.347 69.3729 24.2787 67.819C23.9873 67.382 24.6186 66.8964 24.9099 67.3334C25.8326 68.6931 26.8523 70.0042 27.9206 71.2668C27.9206 68.8873 27.9692 66.5565 27.9692 64.1771C27.9692 63.6429 28.7947 63.5458 28.7947 64.08C28.7947 67.3334 28.7461 70.5869 28.6976 73.8404C29.5716 72.3351 30.4943 70.8297 31.4169 69.3729C31.7082 68.9359 32.3395 69.4215 32.0482 69.8585C30.8342 71.7038 29.7173 73.549 28.649 75.4914C28.6004 78.3564 28.6004 81.2214 28.5519 84.0864C28.5519 84.135 28.5519 84.135 28.5519 84.1835C28.5519 85.786 28.5033 87.3885 28.5033 88.9909C30.9313 86.3202 33.0194 83.4066 34.7189 80.2017C34.9617 79.7646 35.7387 80.1046 35.4473 80.5416C33.5049 84.0379 31.1741 87.2914 28.4548 90.2049C28.4062 94.2839 28.3576 98.3629 28.3091 102.49C30.2515 100.402 32.1938 98.3143 34.1362 96.2263C34.4761 95.8378 35.156 96.3234 34.7675 96.7119C32.5823 99.0427 30.4457 101.374 28.2605 103.656C28.1634 109.774 28.1149 115.893 27.9692 122.06C28.1634 122.594 27.3379 122.448 27.3379 121.963Z" fill="#49A6D6"/>
<g opacity="0.6">
<path d="M173.079 125.822L183.421 124.493L183.19 95.1982L172.848 95.8338L173.079 125.822Z" fill="#A3A8AF"/>
<path d="M150.198 94.619L160.367 95.1968L163.199 95.3123L172.848 95.8324L183.19 95.1968L171.866 94.5612L168.052 94.3879L160.599 93.9834L150.198 94.619Z" fill="#B4BAC1"/>
<path d="M150.486 124.432L173.078 125.818L172.847 95.8306L171.229 95.715L150.255 94.6172L150.486 124.432Z" fill="#CBCFD3"/>
<path d="M183.189 95.1802C183.189 95.1802 178.105 95.0647 172.789 95.8158L183.189 95.1802Z" fill="#696E72"/>
<path d="M160.137 99.286L163.141 99.5749V95.2992L160.137 95.1836V99.286Z" fill="#C0C3C9"/>
<path d="M160.137 95.182L163.141 95.2975H163.199L171.866 94.5464L168.053 94.373L160.368 95.182H160.137Z" fill="#E5E5E5"/>
<path d="M178.162 117.826L178.508 117.19L179.433 117.248L179.664 117.71L179.779 117.595L179.548 118.115L179.028 118.057L179.144 117.942L179.028 117.71H178.913L178.624 118.173L178.162 117.826Z" fill="#696E72"/>
<path d="M179.896 118.172L180.185 118.692L179.78 119.501L179.376 119.559V119.732L179.029 119.327L179.376 118.807V118.981H179.607L179.665 118.865L179.434 118.403L179.896 118.172Z" fill="#696E72"/>
<path d="M178.798 119.617L178.105 119.733L177.527 118.866L177.816 118.404L177.642 118.288L178.278 118.23L178.567 118.75L178.394 118.693L178.278 118.982V119.039H178.856L178.798 119.617Z" fill="#696E72"/>
<path d="M88.43 122.293L74.6784 121.426L73.5806 81.9629L87.3322 82.8296L88.43 122.293Z" fill="#CBCFD3"/>
<path d="M117.262 81.2661L103.857 81.9595L100.044 82.1328L87.3322 82.8262L73.5806 81.9595L88.5455 81.1506L93.6301 80.9194L103.51 80.3994L117.262 81.2661Z" fill="#A3A8AF"/>
<path d="M118.419 120.723L88.4308 122.283L87.333 82.8198L89.4709 82.7043L117.263 81.2598L117.667 95.5891L118.419 120.723Z" fill="#7A8187"/>
<path d="M73.582 81.9444C73.582 81.9444 80.3423 81.7711 87.3336 82.8111L73.582 81.9444Z" fill="#696E72"/>
<path d="M104.089 87.4373L100.16 87.7262V82.1216L104.089 81.9482V87.4373Z" fill="#A3A8AF"/>
<path d="M104.089 81.9434L100.16 82.1167H100.045L88.5464 81.1344L93.631 80.9033L103.858 81.9434H104.089Z" fill="#898E93"/>
<path opacity="0.22" d="M84.7329 81.7088L89.4708 82.6911L115.241 81.3044L105.418 80.7266L84.7329 81.7088Z" fill="#757B7F"/>
<path opacity="0.22" d="M117.667 102.103L89.4707 82.6886L117.263 81.2441L117.667 102.103Z" fill="#757B7F"/>
<path d="M80.3418 87.8921C80.3418 87.8921 87.102 85.9276 91.5511 85.292L80.3418 87.8921Z" fill="#623533"/>
<path d="M80.3988 87.8945H80.341H80.2832L81.2077 130.478L81.3232 130.536L81.381 130.478L80.3988 87.8945Z" fill="#E1C0A7"/>
<path opacity="0.22" d="M117.032 117.593L101.085 99.1608L101.027 86.7959L116.974 88.7604L117.032 117.593Z" fill="#623533"/>
<path opacity="0.22" d="M101.027 86.7967L109.058 86.5078L126.219 88.4145L116.974 88.7612L101.027 86.7967Z" fill="#623533"/>
<path opacity="0.22" d="M123.388 87.4868L129.917 88.2957L156.438 87.1979L141.068 85.9268L123.388 87.4868Z" fill="#623533"/>
<path d="M117.034 130.305L101.26 125.163L101.087 99.1617L101.029 86.7969L116.977 88.7614L117.034 117.593V130.305Z" fill="#CBCFD3"/>
<path d="M156.44 87.2041L138.066 87.9552L133.79 88.1286H133.097L116.977 88.7641L101.029 86.7996L121.541 86.0485L126.972 85.8752L138.586 85.4707L156.44 87.2041Z" fill="#898E93"/>
<path d="M156.441 87.2012L155.978 126.087L117.035 130.305L116.977 88.7612L156.441 87.2012Z" fill="#A3A8AF"/>
<path d="M101.029 86.7363C101.029 86.7363 109.407 86.9097 116.977 88.7586L101.029 86.7363Z" fill="#696E72"/>
<path d="M138.124 94.0817L133.097 94.5439V88.1304L138.124 87.957V94.0817Z" fill="#C0C3C9"/>
<path d="M138.125 87.9521L133.791 88.1255H133.098L121.542 86.0454L126.973 85.8721L138.067 87.9521H138.125Z" fill="#B4BAC1"/>
<path d="M150.37 123.31C149.85 123.31 149.445 122.963 149.445 122.443C149.445 121.923 149.792 121.519 150.312 121.519C150.832 121.519 151.236 121.865 151.236 122.385C151.236 122.905 150.89 123.31 150.37 123.31ZM150.312 121.865C150.023 121.865 149.734 122.154 149.734 122.443C149.734 122.732 150.023 123.021 150.312 123.021C150.601 123.021 150.89 122.732 150.89 122.443C150.89 122.096 150.601 121.807 150.312 121.865Z" fill="#868A8E"/>
<path d="M152.146 122.199L148.451 122.343L148.465 122.689L152.16 122.545L152.146 122.199Z" fill="#868A8E"/>
<path d="M150.407 120.601L150.061 120.614L150.204 124.309L150.55 124.296L150.407 120.601Z" fill="#868A8E"/>
<path d="M152.222 124.989L148.639 125.105C148.177 125.105 147.773 124.758 147.773 124.296L147.657 120.714C147.657 120.251 148.004 119.847 148.466 119.847L152.048 119.731C152.511 119.731 152.915 120.078 152.915 120.54L153.031 124.123C153.089 124.585 152.684 124.989 152.222 124.989ZM148.466 120.078C148.119 120.078 147.831 120.367 147.888 120.714L148.004 124.296C148.004 124.643 148.293 124.932 148.639 124.874L152.222 124.758C152.569 124.758 152.857 124.469 152.8 124.123L152.684 120.54C152.684 120.194 152.395 119.905 152.048 119.963L148.466 120.078Z" fill="#868A8E"/>
<path d="M122.988 87.4867L114.379 86.5622L114.206 56.6323L122.757 55.7656L122.988 87.4867Z" fill="#CBCFD3"/>
<path d="M151.589 56.0545L151.82 86.7934L122.988 87.4867L122.757 55.7656L151.589 56.0545Z" fill="#A3A8AF"/>
<path d="M135.639 55.8779V61.1359L136.39 60.7892L136.968 61.1359L137.719 60.7892L138.47 61.1359L139.452 60.7892L140.203 61.1359V55.9357L135.639 55.8779Z" fill="#C0C3C9"/>
<path d="M122.986 55.7656H122.755H122.466L122.755 87.4289L122.986 87.4867H123.391L122.986 55.7656Z" fill="#E5E5E5"/>
<path d="M142.341 84.946H142.514V84.3682H142.63L142.457 84.0215L142.226 84.3682H142.341V84.946Z" fill="#A3A8AF"/>
<path d="M142.803 84.946H143.034V84.3682H143.15L142.918 84.0215L142.745 84.3682H142.803V84.946Z" fill="#A3A8AF"/>
<path d="M143.15 85.0059H142.167V85.1792H143.15V85.0059Z" fill="#A3A8AF"/>
<path d="M143.381 85.6387H141.994C141.821 85.6387 141.647 85.4653 141.647 85.292V83.9053C141.647 83.7319 141.821 83.5586 141.994 83.5586H143.381C143.554 83.5586 143.728 83.7319 143.728 83.9053V85.292C143.728 85.4653 143.554 85.6387 143.381 85.6387ZM141.994 83.6742C141.879 83.6742 141.763 83.7897 141.763 83.9053V85.292C141.763 85.4075 141.879 85.5231 141.994 85.5231H143.381C143.496 85.5231 143.612 85.4075 143.612 85.292V83.9053C143.612 83.7897 143.496 83.6742 143.381 83.6742H141.994Z" fill="#A3A8AF"/>
<path d="M146.04 84.3068V83.9601H145.578L145.636 84.0757H145.578L145.636 84.249L145.463 84.0179H145.578L145.52 83.9023H145.405V84.249C145.405 84.4224 145.52 84.5957 145.694 84.5957V85.1157C145.636 85.1157 145.52 85.1157 145.463 85.1735H145.983C145.925 85.1157 145.867 85.1157 145.751 85.1157V84.5957C145.925 84.5957 146.04 84.4801 146.04 84.3068Z" fill="#A3A8AF"/>
<path d="M146.388 85.6387H145.001C144.828 85.6387 144.654 85.4653 144.654 85.292V83.9053C144.654 83.7319 144.828 83.5586 145.001 83.5586H146.388C146.561 83.5586 146.734 83.7319 146.734 83.9053V85.292C146.734 85.4653 146.561 85.6387 146.388 85.6387ZM145.001 83.6742C144.885 83.6742 144.77 83.7897 144.77 83.9053V85.292C144.77 85.4075 144.885 85.5231 145.001 85.5231H146.388C146.503 85.5231 146.619 85.4075 146.619 85.292V83.9053C146.619 83.7897 146.503 83.6742 146.388 83.6742H145.001Z" fill="#A3A8AF"/>
<path d="M149.39 85.6387H148.003C147.83 85.6387 147.656 85.4653 147.656 85.292V83.9053C147.656 83.7319 147.83 83.5586 148.003 83.5586H149.39C149.563 83.5586 149.736 83.7319 149.736 83.9053V85.292C149.736 85.4653 149.621 85.6387 149.39 85.6387ZM148.003 83.6742C147.887 83.6742 147.772 83.7897 147.772 83.9053V85.292C147.772 85.4075 147.887 85.5231 148.003 85.5231H149.39C149.505 85.5231 149.621 85.4075 149.621 85.292V83.9053C149.621 83.7897 149.505 83.6742 149.39 83.6742H148.003Z" fill="#A3A8AF"/>
<path d="M149.33 84.4844H148.175L148.233 84.3688C148.348 84.1955 148.521 84.1377 148.753 84.1377C148.926 84.1377 149.157 84.2533 149.273 84.3688L149.33 84.4844Z" fill="#A3A8AF"/>
<path d="M148.637 85.2319C148.522 85.2319 148.464 85.1164 148.464 85.0586C148.464 85.0586 148.464 85.0008 148.522 85.0008C148.579 85.0008 148.579 85.0008 148.579 85.0586C148.579 85.1164 148.637 85.1741 148.695 85.1741C148.753 85.1741 148.811 85.1164 148.811 85.0586V84.423C148.811 84.423 148.811 84.3652 148.868 84.3652C148.926 84.3652 148.926 84.3652 148.926 84.423V85.0586C148.811 85.1164 148.753 85.2319 148.637 85.2319Z" fill="#A3A8AF"/>
<path d="M148.926 83.8958H148.868V83.8376L148.926 83.7793L148.985 83.8376C148.926 83.8376 148.926 83.8958 148.926 83.8958Z" fill="#A3A8AF"/>
<path d="M149.158 83.9574H149.1V83.8991L149.158 83.8408L149.216 83.8991C149.216 83.8991 149.216 83.9574 149.158 83.9574Z" fill="#A3A8AF"/>
<path d="M149.041 84.013H148.983V83.9548L149.041 83.8965L149.099 83.9548C149.041 83.9548 149.041 84.013 149.041 84.013Z" fill="#A3A8AF"/>
<path d="M90.166 82.2825L84.7347 81.7625L84.6191 62.984L89.9927 62.4062L90.166 82.2825Z" fill="#CBCFD3"/>
<path d="M108.076 62.5796L108.25 81.4158L90.1646 82.2825L89.9912 62.4062L108.076 62.5796Z" fill="#A3A8AF"/>
<path d="M98.0811 62.4697V65.821L98.5433 65.5898L98.89 65.821L99.3522 65.5898L99.8722 65.821L100.45 65.5898L100.912 65.821V62.5275L98.0811 62.4697Z" fill="#C0C3C9"/>
<path d="M90.165 62.4111H89.9917H89.8184L89.9917 82.2874H90.165H90.3962L90.165 62.4111Z" fill="#E5E5E5"/>
<path d="M58.5596 87.4876C58.5596 87.4876 64.9153 86.3898 70.8089 84.9453L58.5596 87.4876Z" fill="#623533"/>
<path d="M91.5508 85.292L80.3415 87.8921L58.5585 87.4876L54.2828 87.3721L36.5444 87.0832L49.0827 84.5986L66.7633 84.8875L70.7501 84.9453L91.5508 85.292Z" fill="#A3A8AF"/>
<path d="M80.342 87.8919L81.3242 130.533L37.8739 128.164L36.5449 87.083L80.342 87.8919Z" fill="#CBCFD3"/>
<path d="M80.3423 87.8862L91.5516 85.2861L92.4183 126.194L81.3245 130.528L80.3423 87.8862Z" fill="#A3A8AF"/>
<path d="M58.5599 93.7288L57.8665 93.2666L57.0576 93.7288L56.1909 93.2666L55.4975 93.7288L54.9198 93.2666L54.2842 93.7288V87.373L58.5599 87.4886V93.7288Z" fill="#D9DEE2"/>
<path d="M70.7514 84.9455L58.5599 87.4878L54.2842 87.3722L66.7646 84.8877L70.7514 84.9455Z" fill="#B4BAC1"/>
<path d="M43.4238 124.295C42.9038 124.295 42.5571 123.833 42.5571 123.313C42.5571 122.793 43.0194 122.446 43.5394 122.446C44.0594 122.446 44.4061 122.909 44.4061 123.429C44.3483 123.949 43.9438 124.295 43.4238 124.295ZM43.4816 122.793C43.1927 122.793 42.9038 123.024 42.9038 123.371C42.9038 123.66 43.1349 123.949 43.4816 123.949C43.7705 123.949 44.0594 123.717 44.0594 123.371C44.0594 123.082 43.8283 122.793 43.4816 122.793Z" fill="#A3A8AF"/>
<path d="M41.6232 123.091L41.6074 123.438L45.3016 123.606L45.3174 123.26L41.6232 123.091Z" fill="#A3A8AF"/>
<path d="M43.3728 121.491L43.2041 125.186L43.5504 125.201L43.7191 121.507L43.3728 121.491Z" fill="#A3A8AF"/>
<path d="M45.1556 126.144L41.5732 125.971C41.111 125.971 40.7065 125.566 40.7643 125.046L40.9376 121.464C40.9376 121.002 41.3421 120.597 41.8621 120.655L45.4445 120.828C45.9067 120.828 46.3112 121.233 46.2534 121.753L46.08 125.335C46.0223 125.797 45.6178 126.144 45.1556 126.144ZM41.7466 120.886C41.3999 120.886 41.111 121.117 41.111 121.464L40.9376 125.046C40.9376 125.393 41.1688 125.682 41.5154 125.682L45.0978 125.855C45.4445 125.855 45.7334 125.624 45.7334 125.277L45.9067 121.695C45.9067 121.348 45.6756 121.059 45.3289 121.059L41.7466 120.886Z" fill="#A3A8AF"/>
<path d="M50.0098 125.22L51.2809 122.216L52.321 125.336L51.1654 124.7L50.0098 125.22Z" fill="#A3A8AF"/>
<path d="M52.8987 126.491L49.3164 126.317C48.8541 126.317 48.4497 125.913 48.5075 125.393L48.6808 121.811C48.6808 121.348 49.0853 120.944 49.6053 121.002L53.1876 121.175C53.6499 121.175 54.0543 121.579 53.9966 122.099L53.8232 125.682C53.7654 126.144 53.361 126.491 52.8987 126.491ZM49.5475 121.233C49.2008 121.233 48.9119 121.464 48.9119 121.811L48.7386 125.393C48.7386 125.74 48.9697 126.028 49.3164 126.028L52.8987 126.202C53.2454 126.202 53.5343 125.971 53.5343 125.624L53.7077 122.042C53.7077 121.695 53.4765 121.406 53.1299 121.406L49.5475 121.233Z" fill="#A3A8AF"/>
<path d="M58.0396 123.311L58.5018 122.617L59.5418 122.675L59.8307 123.195L60.0041 123.079L59.7152 123.657L59.0218 123.599L59.1951 123.484L59.0796 123.195H58.964L58.6173 123.715L58.0396 123.311Z" fill="#A3A8AF"/>
<path d="M60.1203 123.774L60.5247 124.468L59.9469 125.392L59.3691 125.334V125.508L59.0225 124.988L59.4269 124.468V124.641H59.7158L59.7736 124.583L59.5425 124.006L60.1203 123.774Z" fill="#A3A8AF"/>
<path d="M58.7337 125.334L57.9248 125.276L57.4048 124.351L57.7515 123.889L57.5781 123.774L58.2137 123.716L58.4448 124.351L58.3293 124.236L58.1559 124.525V124.64L58.7915 124.698L58.7337 125.334Z" fill="#A3A8AF"/>
<path d="M60.639 126.832L57.0566 126.659C56.5944 126.659 56.1899 126.255 56.2477 125.735L56.421 122.152C56.421 121.69 56.8255 121.286 57.3455 121.343L60.9279 121.517C61.3901 121.517 61.7946 121.921 61.7368 122.441L61.5634 126.024C61.5057 126.486 61.1012 126.832 60.639 126.832ZM57.2877 121.575C56.9411 121.575 56.6522 121.806 56.6522 122.152L56.4788 125.735C56.4788 126.081 56.7099 126.37 57.0566 126.37L60.639 126.544C60.9857 126.544 61.2745 126.312 61.2745 125.966L61.4479 122.383C61.4479 122.037 61.2168 121.748 60.8701 121.748L57.2877 121.575Z" fill="#A3A8AF"/>
<path d="M65.841 125.277L66.3032 125.335L66.4188 123.775H66.6499L66.1877 122.851L65.6099 123.717L65.8988 123.775L65.841 125.277Z" fill="#A3A8AF"/>
<path d="M67.0532 125.332L67.5732 125.39L67.631 123.83H67.9199L67.3999 122.905L66.8799 123.772L67.1688 123.83L67.0532 125.332Z" fill="#A3A8AF"/>
<path d="M65.4146 125.491L65.3936 125.953L67.991 126.072L68.0121 125.61L65.4146 125.491Z" fill="#A3A8AF"/>
<path d="M68.4417 127.179L64.8594 127.006C64.3971 127.006 63.9927 126.601 64.0504 126.081L64.2238 122.499C64.2238 122.037 64.6282 121.632 65.1483 121.69L68.7306 121.863C69.1928 121.863 69.5973 122.268 69.5395 122.788L69.3662 126.37C69.3084 126.832 68.9039 127.179 68.4417 127.179ZM65.0327 121.921C64.686 121.921 64.3971 122.152 64.3971 122.499L64.2238 126.081C64.2238 126.428 64.4549 126.717 64.8016 126.717L68.3839 126.89C68.7306 126.89 69.0195 126.659 69.0195 126.312L69.1928 122.73C69.1928 122.383 68.9617 122.095 68.615 122.095L65.0327 121.921Z" fill="#A3A8AF"/>
<path d="M45.5581 86.7389L81.6127 87.6056L91.5508 85.2944L80.3415 85.1211L45.5581 86.7389Z" fill="#898E93"/>
<path d="M82.0754 56.2311L86.5822 51.4932H51.9144L45.2119 55.6533L82.0754 56.2311Z" fill="#E5E5E5"/>
<path d="M86.5828 51.4941V51.8408L82.3071 56.2321L82.1338 56.0587L86.5828 51.4941Z" fill="#A3A8AF"/>
<path d="M45.2121 55.471L40.3008 52.582H48.8522L53.1279 55.471H45.2121Z" fill="#CBCFD3"/>
<path d="M40.3008 52.582V52.8131L45.2121 55.6444L45.2698 55.471L40.3008 52.582Z" fill="#CBCFD3"/>
<path d="M73.8701 87.0914L82.306 85.358V56.237L74.0435 55.3125L73.8701 87.0914Z" fill="#A3A8AF"/>
<path d="M45.2119 55.6592L45.5008 86.7447L73.8707 87.0914L74.044 55.3125L45.2119 55.6592Z" fill="#CBCFD3"/>
<path d="M61.1582 55.4795V60.7374L60.4648 60.3908L59.8293 60.7374L59.1359 60.3908L58.3848 60.7374L57.4025 60.3908L56.6514 60.7374V55.5373L61.1582 55.4795Z" fill="#D9DEE2"/>
<path d="M73.8703 55.3086H74.0436L74.3903 55.3664L74.1014 87.0297L73.8703 87.0875H73.4658L73.8703 55.3086Z" fill="#E5E5E5"/>
<path d="M45.2119 55.6517L39.665 48.487L70.8083 47.9092L74.044 55.305L45.2119 55.6517Z" fill="#A3A8AF"/>
<path d="M74.0439 55.3058L76.7018 47.6211L85.1954 49.5278L82.3065 56.2303L74.0439 55.3058Z" fill="#898E93"/>
<path d="M39.665 48.4845V48.1956L70.8661 47.7334L70.8083 47.9067L39.665 48.4845Z" fill="#CBCFD3"/>
<path d="M74.0457 55.3026L70.8101 47.9067L70.8678 47.7334L74.1613 55.1292L74.0457 55.3026Z" fill="#898E93"/>
<path d="M76.7018 47.6211H76.4707L74.0439 54.9591L74.1595 55.1325L76.7018 47.6211Z" fill="#CBCFD3"/>
<path d="M56.6525 55.5418L52.7812 48.3193H57.2881L61.1593 55.484L56.6525 55.5418Z" fill="#B4BAC1"/>
<path d="M62.376 83.9679L62.6071 83.5635H63.1849L63.3004 83.8524L63.416 83.7946L63.2427 84.0835H62.896L63.0115 84.0257L62.896 83.8524H62.8382L62.6649 84.1413L62.376 83.9679Z" fill="#A3A8AF"/>
<path d="M63.4751 84.1445L63.7062 84.549L63.4173 85.069H63.1284V85.1846L62.9551 84.8957L63.1284 84.549V84.6646H63.3018L63.3595 84.6068L63.1862 84.3179L63.4751 84.1445Z" fill="#A3A8AF"/>
<path d="M62.7803 85.0649H62.3758L62.0869 84.5449L62.2025 84.256L62.1447 84.1982H62.4914L62.6069 84.5449L62.5491 84.4871L62.4336 84.6027L62.4914 84.6605L62.838 84.7183L62.7803 85.0649Z" fill="#A3A8AF"/>
<path d="M63.8182 85.8737H61.9115C61.6803 85.8737 61.4492 85.6426 61.4492 85.4115V83.3314C61.4492 83.0425 61.6803 82.8691 61.9115 82.8691H63.8182C64.0493 82.8691 64.2804 83.1003 64.2804 83.3314V85.3537C64.2804 85.6426 64.1071 85.8737 63.8182 85.8737ZM61.9692 82.9847C61.7959 82.9847 61.6226 83.158 61.6226 83.3314V85.3537C61.6226 85.527 61.7959 85.7004 61.9692 85.7004H63.876C64.0493 85.7004 64.2226 85.527 64.2226 85.3537V83.3314C64.2226 83.158 64.0493 82.9847 63.876 82.9847H61.9692Z" fill="#A3A8AF"/>
<path d="M66.535 84.8898H66.8239V83.9653H66.9394L66.6505 83.4453L66.4194 83.9653H66.535V84.8898Z" fill="#A3A8AF"/>
<path d="M67.1712 84.8898H67.4601V83.9653H67.5757L67.3446 83.4453L67.0557 83.9653H67.1712V84.8898Z" fill="#A3A8AF"/>
<path d="M67.6904 84.9414H66.3037V85.2303H67.6904V84.9414Z" fill="#A3A8AF"/>
<path d="M67.9206 85.8737H66.0716C65.8405 85.8737 65.6094 85.6426 65.6094 85.4115V83.3314C65.6094 83.0425 65.8405 82.8691 66.0716 82.8691H67.9783C68.2095 82.8691 68.4406 83.1003 68.4406 83.3314V85.3537C68.3828 85.6426 68.2095 85.8737 67.9206 85.8737ZM66.0716 82.9847C65.8983 82.9847 65.7249 83.158 65.7249 83.3314V85.3537C65.7249 85.527 65.8983 85.7004 66.0716 85.7004H67.9783C68.1517 85.7004 68.325 85.527 68.325 85.3537V83.3314C68.325 83.158 68.1517 82.9847 67.9783 82.9847H66.0716Z" fill="#A3A8AF"/>
<path d="M71.5627 83.9095V83.4473H70.9271L70.9849 83.6784H70.8693L70.9271 83.9673L70.696 83.6206H70.8693L70.8115 83.505H70.6382V83.9673C70.6382 84.1984 70.8115 84.4295 71.0426 84.4873V85.2384C70.9271 85.2384 70.8693 85.2962 70.7538 85.2962H71.5049C71.3893 85.2384 71.3315 85.2384 71.216 85.2384V84.4873C71.3893 84.3717 71.5627 84.1984 71.5627 83.9095Z" fill="#A3A8AF"/>
<path d="M72.0238 85.8737H70.117C69.8859 85.8737 69.6548 85.6426 69.6548 85.4115V83.3314C69.6548 83.0425 69.8859 82.8691 70.117 82.8691H72.0238C72.2549 82.8691 72.486 83.1003 72.486 83.3314V85.3537C72.486 85.6426 72.3127 85.8737 72.0238 85.8737ZM70.117 82.9847C69.9437 82.9847 69.7703 83.158 69.7703 83.3314V85.3537C69.7703 85.527 69.9437 85.7004 70.117 85.7004H72.0238C72.1971 85.7004 72.3704 85.527 72.3704 85.3537V83.3314C72.3704 83.158 72.1971 82.9847 72.0238 82.9847H70.117Z" fill="#A3A8AF"/>
</g>
<path d="M208.174 100.935C207.591 97.5844 205.94 94.6223 204.774 91.466C203.318 87.387 203.997 84.1335 205.066 80.1031C206.717 74.0331 206.717 67.2348 203.56 61.6505C202.686 60.1451 201.521 58.7855 200.695 57.2801C199.724 55.6291 199.287 53.4439 199.093 51.5501C198.899 49.7534 199.239 47.9082 199.142 46.1115C199.093 44.5576 198.85 43.0037 198.413 41.4498C197.296 37.2251 194.237 31.7379 189.138 31.7865C183.117 31.835 181.612 39.0704 181.806 43.7806C181.951 47.0341 182.486 50.5304 181.32 53.6867C180.058 57.0859 176.707 59.174 174.813 62.1846C171.997 66.6035 171.414 72.3821 173.405 77.2866C174.522 80.0545 176.95 82.531 177.047 85.5903C177.144 89.1837 173.211 91.2717 171.463 93.9425C168.452 98.41 168.306 104.237 170.394 109.142C175.59 120.019 189.964 123.855 200.161 117.737C200.307 117.785 200.501 117.737 200.647 117.639C205.746 113.658 209.242 107.491 208.174 100.935Z" fill="url(#paint1_linear)"/>
<path d="M189.577 128.276C189.674 123.031 189.722 117.787 189.819 112.494C186.614 108.949 183.944 105.016 181.856 100.742C181.564 100.208 182.487 99.8198 182.778 100.403C184.672 104.287 187.051 107.832 189.916 111.086C189.965 106.618 190.014 102.199 190.111 97.7318C190.062 97.6832 190.014 97.6832 190.014 97.6346C186.712 93.9927 183.944 89.9623 181.613 85.5919C181.321 85.0578 182.244 84.6693 182.535 85.252C184.672 89.2339 187.197 92.9244 190.159 96.3235C190.208 92.1474 190.256 87.9713 190.305 83.7952C188.12 81.0759 186.177 78.2594 184.478 75.2488C184.186 74.7146 184.963 74.1319 185.255 74.666C186.76 77.3368 188.46 79.8619 190.305 82.2413C190.354 78.0652 190.402 73.9376 190.402 69.7615C190.354 69.713 190.305 69.713 190.256 69.6159C188.8 67.8677 187.391 66.1196 186.129 64.2743C185.789 63.7887 186.566 63.1575 186.906 63.6916C188.023 65.2941 189.188 66.7994 190.451 68.3048C190.451 65.5369 190.499 62.7204 190.499 59.9525C190.499 59.3213 191.47 59.2241 191.47 59.8554C191.47 63.6916 191.422 67.5278 191.373 71.4126C192.393 69.6159 193.461 67.8677 194.627 66.1681C194.967 65.634 195.744 66.2167 195.404 66.7509C193.947 68.8875 192.636 71.1212 191.373 73.4035C191.325 76.8027 191.325 80.1532 191.276 83.5524C191.276 83.601 191.276 83.6495 191.276 83.6495C191.276 85.5433 191.228 87.4372 191.228 89.331C194.044 86.1746 196.521 82.7269 198.56 78.9878C198.851 78.4537 199.725 78.8421 199.434 79.3763C197.152 83.5039 194.384 87.34 191.179 90.7878C191.13 95.5951 191.082 100.451 190.985 105.258C193.267 102.782 195.598 100.354 197.88 97.8774C198.317 97.4404 199.094 98.0231 198.657 98.4601C196.084 101.179 193.51 103.947 190.985 106.667C190.888 113.902 190.791 121.137 190.645 128.373C190.499 129.053 189.577 128.907 189.577 128.276Z" fill="#49A6D6"/>
<defs>
<linearGradient id="paint0_linear" x1="26.6189" y1="89.3972" x2="26.6189" y2="179.718" gradientUnits="userSpaceOnUse">
<stop stop-color="#BFEAFF"/>
<stop offset="1" stop-color="#BFEAFF" stop-opacity="0"/>
</linearGradient>
<linearGradient id="paint1_linear" x1="187.304" y1="64.2995" x2="191.674" y2="185.698" gradientUnits="userSpaceOnUse">
<stop stop-color="#8FD8FC"/>
<stop offset="1" stop-color="#8FD8FC" stop-opacity="0"/>
</linearGradient>
</defs>
</svg>
